<svg width="319" height="319" viewBox="0 0 319 319" fill="none" xmlns="http://www.w3.org/2000/svg">
<path d="M319 243.971H0V244.131H319V243.971Z" fill="#EBEBEB"/>
<path d="M287.036 254.237H265.906V254.396H287.036V254.237Z" fill="#EBEBEB"/>
<path d="M257.873 254.237H212.697V254.396H257.873V254.237Z" fill="#EBEBEB"/>
<path d="M187.783 248.316H175.539V248.475H187.783V248.316Z" fill="#EBEBEB"/>
<path d="M55.3465 249.388H33.4695V249.547H55.3465V249.388Z" fill="#EBEBEB"/>
<path d="M100.804 249.388H61.0247V249.547H100.804V249.388Z" fill="#EBEBEB"/>
<path d="M143.639 252.08H120.155V252.24H143.639V252.08Z" fill="#EBEBEB"/>
<path d="M151.206 215.516H28.0145C27.0495 215.515 26.1245 215.13 25.4427 214.447C24.7609 213.764 24.3779 212.838 24.3779 211.873V38.7011C24.3863 37.7415 24.773 36.8241 25.4539 36.1479C26.1348 35.4718 27.055 35.0916 28.0145 35.09H151.206C152.172 35.09 153.099 35.4738 153.782 36.157C154.465 36.8402 154.849 37.7668 154.849 38.733V211.873C154.849 212.84 154.465 213.766 153.782 214.449C153.099 215.133 152.172 215.516 151.206 215.516ZM28.0145 35.2176C27.0918 35.2193 26.2074 35.587 25.5555 36.2401C24.9036 36.8932 24.5374 37.7783 24.5374 38.7011V211.873C24.5374 212.796 24.9036 213.681 25.5555 214.334C26.2074 214.987 27.0918 215.355 28.0145 215.357H151.206C152.129 215.355 153.014 214.988 153.667 214.335C154.32 213.682 154.688 212.797 154.689 211.873V38.7011C154.688 37.7777 154.32 36.8927 153.667 36.2398C153.014 35.5868 152.129 35.2193 151.206 35.2176H28.0145Z" fill="#EBEBEB"/>
<path d="M289.212 215.516H166.014C165.048 215.515 164.123 215.13 163.44 214.448C162.757 213.765 162.373 212.839 162.371 211.873V38.7011C162.381 37.741 162.769 36.8235 163.451 36.1475C164.133 35.4716 165.054 35.0916 166.014 35.09H289.212C290.17 35.0933 291.089 35.4742 291.768 36.1502C292.448 36.8261 292.834 37.7426 292.842 38.7011V211.873C292.842 212.837 292.46 213.762 291.78 214.445C291.099 215.128 290.176 215.513 289.212 215.516ZM166.014 35.2176C165.091 35.2193 164.206 35.5868 163.553 36.2398C162.9 36.8927 162.532 37.7777 162.531 38.7011V211.873C162.532 212.797 162.9 213.682 163.553 214.335C164.206 214.988 165.091 215.355 166.014 215.357H289.212C290.135 215.355 291.02 214.988 291.673 214.335C292.326 213.682 292.694 212.797 292.695 211.873V38.7011C292.694 37.7777 292.326 36.8927 291.673 36.2398C291.02 35.5868 290.135 35.2193 289.212 35.2176H166.014Z" fill="#EBEBEB"/>
<path d="M48.3858 123.274L134.962 123.274V48.2647L48.3858 48.2647L48.3858 123.274Z" fill="#E6E6E6"/>
<path d="M46.4527 123.274L133.029 123.274V48.2647L46.4527 48.2647L46.4527 123.274Z" fill="#F5F5F5"/>
<path d="M129.578 120.595V50.9443L49.9108 50.9443V120.595H129.578Z" fill="#FAFAFA"/>
<path d="M97.6267 120.595L112.065 50.9443H81.8617L67.4302 120.595H97.6267Z" fill="white"/>
<path d="M51.3655 120.601L51.3655 50.9507H49.9108L49.9108 120.601H51.3655Z" fill="#E6E6E6"/>
<path d="M47.882 108.109L131.6 108.109V104.511L47.882 104.511V108.109Z" fill="#F5F5F5"/>
<path d="M130.943 240.175H144.769V180.222H130.943V240.175Z" fill="#F0F0F0"/>
<path d="M40.6597 243.971H142.121V240.175H40.6597V243.971Z" fill="#F0F0F0"/>
<path d="M130.943 180.216H37.9993V240.169H130.943V180.216Z" fill="#F5F5F5"/>
<path d="M125.514 187.598H43.4351V207.261H125.514V187.598Z" fill="#F0F0F0"/>
<path d="M125.514 213.13H43.4351V232.793H125.514V213.13Z" fill="#F0F0F0"/>
<path d="M62.3518 198.775H106.597C106.954 198.774 107.295 198.631 107.547 198.379C107.799 198.127 107.942 197.786 107.943 197.429C107.942 197.072 107.799 196.73 107.548 196.477C107.296 196.224 106.954 196.08 106.597 196.077H62.3518C61.9947 196.08 61.6533 196.224 61.4014 196.477C61.1494 196.73 61.0073 197.072 61.0056 197.429C61.0073 197.786 61.1497 198.127 61.4018 198.379C61.6539 198.631 61.9953 198.774 62.3518 198.775Z" fill="#F5F5F5"/>
<path d="M62.3518 224.308H106.597C106.954 224.306 107.295 224.164 107.547 223.912C107.799 223.66 107.942 223.318 107.943 222.962C107.943 222.604 107.802 222.261 107.549 222.008C107.297 221.754 106.955 221.611 106.597 221.609H62.3518C61.9942 221.611 61.6518 221.754 61.3995 222.008C61.1472 222.261 61.0056 222.604 61.0056 222.962C61.0073 223.318 61.1497 223.66 61.4018 223.912C61.6539 224.164 61.9953 224.306 62.3518 224.308Z" fill="#F5F5F5"/>
<path d="M275.373 87.4698C283.246 85.3006 285.939 71.0158 266.046 65.1845C270.435 79.5522 261.65 91.234 275.373 87.4698Z" fill="#EBEBEB"/>
<path d="M277.115 93.6712C283.323 86.9658 277.453 71.7941 255.098 77.9955C267.743 89.0584 266.301 105.366 277.115 93.6712Z" fill="#E0E0E0"/>
<path d="M270.99 95.3938C265.797 90.2515 273.236 72.3556 290.386 80.6496C280.669 89.958 280.082 104.358 270.99 95.3938Z" fill="#FAFAFA"/>
<path d="M265.81 105.41H280.924L282.066 95.1832H264.674L265.81 105.41Z" fill="#E6E6E6"/>
<path d="M264.502 97.0143H282.238C282.538 97.0143 282.825 96.8953 283.037 96.6835C283.249 96.4718 283.368 96.1845 283.368 95.885C283.368 95.5855 283.249 95.2983 283.037 95.0865C282.825 94.8747 282.538 94.7558 282.238 94.7558H264.502C264.203 94.7558 263.915 94.8747 263.704 95.0865C263.492 95.2983 263.373 95.5855 263.373 95.885C263.373 96.1845 263.492 96.4718 263.704 96.6835C263.915 96.8953 264.203 97.0143 264.502 97.0143Z" fill="#E6E6E6"/>
<path d="M138.644 226.65V209.328H153.069V192.012H167.5V174.691H181.926V157.369H196.357V140.054H210.782V122.732H225.214V105.41H239.645H319V243.971H138.644H124.212V226.65H138.644Z" fill="#FAFAFA"/>
<path d="M217.998 226.65V209.328H232.43V192.012H246.855V174.691H261.286V157.369H275.712V140.054H290.143V122.732H304.568V105.41H319V122.732V243.971H217.998H203.573V226.65H217.998Z" fill="#E0E0E0"/>
<path d="M203.573 226.649H123.364V231.843H203.573V226.649Z" fill="#EBEBEB"/>
<path d="M218.005 209.328H137.795V214.521H218.005V209.328Z" fill="#EBEBEB"/>
<path d="M232.43 192.012H152.22V197.206H232.43V192.012Z" fill="#EBEBEB"/>
<path d="M246.861 174.691H166.652V179.884H246.861V174.691Z" fill="#EBEBEB"/>
<path d="M261.287 157.369H181.077V162.562H261.287V157.369Z" fill="#EBEBEB"/>
<path d="M275.718 140.054H195.509V145.247H275.718V140.054Z" fill="#EBEBEB"/>
<path d="M290.143 122.732H209.934V127.925H290.143V122.732Z" fill="#EBEBEB"/>
<path d="M304.575 105.41H224.365V110.604H304.575V105.41Z" fill="#EBEBEB"/>
<path d="M159.5 272.783C227.819 272.783 283.202 269.55 283.202 265.561C283.202 261.572 227.819 258.339 159.5 258.339C91.1813 258.339 35.7981 261.572 35.7981 265.561C35.7981 269.55 91.1813 272.783 159.5 272.783Z" fill="#F5F5F5"/>
<path d="M213.539 101.206C213.424 103.12 213.201 104.874 212.952 106.693C212.703 108.511 212.365 110.291 211.982 112.077C211.236 115.693 210.157 119.232 208.76 122.649L208.18 123.925L208.039 124.244L207.988 124.41L207.886 124.614C207.691 125.015 207.444 125.388 207.152 125.724C206.804 126.116 206.39 126.442 205.927 126.688C205.474 126.926 204.981 127.081 204.473 127.147C203.692 127.23 202.903 127.148 202.157 126.905C201.1 126.544 200.102 126.028 199.196 125.373C198.404 124.815 197.648 124.208 196.932 123.555C194.246 121.065 191.83 118.3 189.722 115.306L191.834 113.513C193.11 114.693 194.386 115.886 195.662 117.016C196.931 118.145 198.255 119.209 199.63 120.206C200.278 120.669 200.951 121.095 201.646 121.482C202.207 121.822 202.813 122.082 203.446 122.254C203.662 122.298 203.816 122.254 203.745 122.254C203.595 122.27 203.454 122.335 203.343 122.439C203.305 122.439 203.305 122.439 203.343 122.439L203.548 121.909L203.994 120.748C205.101 117.551 205.965 114.275 206.578 110.948C206.916 109.277 207.152 107.573 207.408 105.882C207.663 104.192 207.841 102.45 207.988 100.836L213.539 101.206Z" fill="#FFC3BD"/>
<path d="M209.672 94.1816C207.293 94.7877 205.627 104.575 205.627 104.575L212.18 109.041C212.18 109.041 218.464 99.1707 216.646 96.5549C214.732 93.8179 213.143 93.3011 209.672 94.1816Z" fill="#0087BF"/>
<path d="M209.672 94.1816C207.293 94.7877 205.627 104.575 205.627 104.575L212.18 109.041C212.18 109.041 218.464 99.1707 216.646 96.5549C214.732 93.8179 213.143 93.3011 209.672 94.1816Z" fill="#0087BF"/>
<path opacity="0.4" d="M209.672 94.1816C207.293 94.7877 205.627 104.575 205.627 104.575L212.18 109.041C212.18 109.041 218.464 99.1707 216.646 96.5549C214.732 93.8179 213.143 93.3011 209.672 94.1816Z" fill="black"/>
<path opacity="0.3" d="M209.883 96.3699L208.058 106.227L211.74 108.728L209.883 96.3699Z" fill="black"/>
<path d="M191.942 113.111L188.848 108.186L187.081 113.781C187.081 113.781 189.633 116.461 191.949 115.823L191.942 113.111Z" fill="#FFC3BD"/>
<path d="M184.254 106.559L183.03 111.318L187.055 113.781L188.823 108.186L184.254 106.559Z" fill="#FFC3BD"/>
<path d="M222.535 258.868H216.767L216.378 245.509H222.152L222.535 258.868Z" fill="#FFC3BD"/>
<path d="M273.44 232.073L269.045 235.811L258.983 226.828L263.379 223.096L273.44 232.073Z" fill="#FFC3BD"/>
<path d="M267.839 235.365L272.107 230.477C272.18 230.393 272.281 230.338 272.391 230.323C272.502 230.308 272.614 230.333 272.707 230.395L277.052 233.208C277.159 233.283 277.249 233.379 277.316 233.491C277.384 233.602 277.426 233.727 277.442 233.857C277.458 233.986 277.446 234.118 277.407 234.242C277.368 234.367 277.304 234.482 277.217 234.58C275.699 236.258 274.882 236.991 273.007 239.135C271.858 240.456 270.308 242.51 268.713 244.328C267.118 246.147 265.229 244.679 265.733 243.773C267.973 239.728 267.437 238.312 267.475 236.322C267.481 235.97 267.61 235.631 267.839 235.365Z" fill="#263238"/>
<path d="M216.569 258.205H223.051C223.163 258.204 223.271 258.243 223.356 258.316C223.44 258.389 223.495 258.49 223.511 258.601L224.251 263.705C224.272 263.839 224.262 263.977 224.224 264.108C224.185 264.239 224.118 264.36 224.027 264.461C223.936 264.563 223.824 264.644 223.698 264.697C223.572 264.75 223.437 264.775 223.3 264.77C221.042 264.732 219.951 264.598 217.099 264.598C215.344 264.598 211.72 264.783 209.296 264.783C206.872 264.783 206.744 262.384 207.758 262.173C212.276 261.197 214.056 259.857 215.58 258.575C215.854 258.336 216.206 258.205 216.569 258.205Z" fill="#263238"/>
<path opacity="0.2" d="M216.384 245.515L216.582 252.399H222.35L222.152 245.515H216.384Z" fill="black"/>
<path opacity="0.2" d="M263.386 223.096L258.983 226.828L264.177 231.46L268.573 227.721L263.386 223.096Z" fill="black"/>
<path d="M209.672 94.1816C209.672 94.1816 206.923 95.1513 212.429 129.004H235.856C235.467 119.465 235.454 113.583 240.009 94.0157C236.73 93.3394 233.406 92.9002 230.063 92.7014C226.52 92.449 222.964 92.449 219.421 92.7014C214.853 93.148 209.672 94.1816 209.672 94.1816Z" fill="#0087BF"/>
<path opacity="0.4" d="M209.672 94.1816C209.672 94.1816 206.923 95.1513 212.429 129.004H235.856C235.467 119.465 235.454 113.583 240.009 94.0157C236.73 93.3394 233.406 92.9002 230.063 92.7014C226.52 92.449 222.964 92.449 219.421 92.7014C214.853 93.148 209.672 94.1816 209.672 94.1816Z" fill="black"/>
<path d="M230.063 92.7014C226.52 92.449 222.964 92.449 219.421 92.7014C218.847 92.7524 218.26 92.8162 217.679 92.8864C217.439 93.249 217.285 93.662 217.23 94.0934C217.175 94.5248 217.219 94.9632 217.36 95.3746C218.107 97.2312 220.799 97.4481 222.764 97.4481C230.018 97.4481 231.243 93.2118 231.294 93.0332L231.364 92.778C230.956 92.7524 230.497 92.7205 230.063 92.7014Z" fill="white"/>
<path d="M229.042 80.7261C228.366 84.1458 227.702 90.4174 230.095 92.7014C230.095 92.7014 229.157 96.1785 222.796 96.1785C215.778 96.1785 219.453 92.7078 219.453 92.7078C223.281 91.7954 223.172 88.9627 222.509 86.3278L229.042 80.7261Z" fill="#FFC3BD"/>
<path opacity="0.2" d="M226.343 82.9974L222.477 86.2959C222.644 86.9229 222.755 87.5634 222.809 88.2099C224.263 87.9993 226.267 86.398 226.426 84.8731C226.516 84.2482 226.488 83.612 226.343 82.9974Z" fill="black"/>
<path d="M225.029 62.1093C224.436 60.0996 223.938 56.9351 227.511 55.506C226.114 53.7962 225.776 50.5806 227.511 48.673C229.246 46.7654 231.849 47.4672 231.849 47.4672C231.849 47.4672 232.615 42.8034 238.287 43.6392C243.958 44.475 241.432 48.2073 241.432 48.2073C241.432 48.2073 249.171 46.6761 249.688 53.9493C250.205 61.2225 245.764 60.3293 245.764 60.3293C245.764 60.3293 249.216 63.2258 247.302 66.4094C245.388 69.593 240.966 68.4957 240.966 68.4957C240.966 68.4957 238.886 74.1228 233.987 70.9201C229.087 67.7173 225.029 62.1093 225.029 62.1093Z" fill="#263238"/>
<path d="M213.539 66.352C211.625 68.8274 212.467 71.6283 214.177 72.732C218.292 75.3606 224.244 64.3359 222.694 63.0153C221.144 61.6946 215.453 63.8702 213.539 66.352Z" fill="#263238"/>
<path d="M230.822 60.4569C228.117 59.3659 225.374 60.5079 224.519 62.154C222.432 66.167 231.907 73.3955 234.65 68.3808C236.277 65.4014 233.61 61.5798 230.822 60.4569Z" fill="#0087BF"/>
<path d="M229.68 72.732C229.878 78.474 230.082 80.8729 227.485 84.0693C223.587 88.8734 216.512 87.8654 214.611 82.3148C212.901 77.3192 212.869 68.8019 218.222 66.0075C219.398 65.3851 220.715 65.0738 222.045 65.1031C223.376 65.1325 224.677 65.5016 225.825 66.1754C226.974 66.8491 227.93 67.8052 228.605 68.9527C229.28 70.1002 229.65 71.4012 229.68 72.732Z" fill="#FFC3BD"/>
<path d="M228.819 75.737C226.267 74.7864 225.629 71.8069 226.037 70.633C224.761 70.5819 221.973 70.1226 220.933 68.5403C218.943 69.8163 214.738 71.0923 214.285 68.9678C213.832 66.8433 220.174 61.382 224.972 60.9609C230.675 60.4633 236.303 66.0649 234.854 71.4305C233.406 76.7961 228.819 75.737 228.819 75.737Z" fill="#263238"/>
<path d="M212.454 129.004C212.454 129.004 207.905 173.44 208.282 191.036C208.677 209.334 215.383 251.066 215.383 251.066H223.179C223.179 251.066 221.948 210.4 222.637 192.434C223.389 172.841 229.61 129.004 229.61 129.004H212.454Z" fill="#263238"/>
<path d="M223.83 251.346H214.681L214.004 248.431L224.257 248.074L223.83 251.346Z" fill="#0087BF"/>
<path opacity="0.2" d="M222.534 140.06C216.792 151.633 221.38 172.751 223.415 180.611C224.455 168.808 226.216 154.383 227.587 143.792C226.72 137.808 225.214 134.72 222.534 140.06Z" fill="black"/>
<path d="M218.617 129.004C218.617 129.004 223.925 175.201 227.932 190.035C232.691 207.643 262.25 231.345 262.25 231.345L268.247 226.241C268.247 226.241 246.823 200.491 243.18 191.215C235.416 171.437 242.064 141.91 235.856 128.991L218.617 129.004Z" fill="#263238"/>
<path d="M269.204 225.98L261.765 232.296L258.983 230.631L267.399 222.802L269.204 225.98Z" fill="#0087BF"/>
<path d="M221.188 75.1309C221.233 75.5966 221.022 75.9922 220.723 76.0241C220.423 76.056 220.136 75.6987 220.085 75.2393C220.034 74.78 220.25 74.3717 220.557 74.3461C220.863 74.3206 221.144 74.646 221.188 75.1309Z" fill="#263238"/>
<path d="M215.957 75.6349C216.001 76.0943 215.791 76.4962 215.485 76.5281C215.178 76.56 214.904 76.2027 214.847 75.737C214.789 75.2712 215.013 74.8757 215.312 74.8502C215.612 74.8246 215.912 75.1692 215.957 75.6349Z" fill="#263238"/>
<path d="M215.459 74.8629L214.317 74.646C214.317 74.646 215.006 75.4626 215.459 74.8629Z" fill="#263238"/>
<path d="M217.411 76.2984C217.101 77.3938 216.641 78.4414 216.046 79.4119C216.299 79.5574 216.581 79.6465 216.872 79.6729C217.162 79.6994 217.455 79.6625 217.73 79.565L217.411 76.2984Z" fill="#ED847E"/>
<path d="M220.301 81.0898C220.049 81.159 219.79 81.2059 219.53 81.2302C219.512 81.2319 219.494 81.2302 219.477 81.225C219.46 81.2199 219.445 81.2114 219.431 81.2001C219.417 81.1889 219.406 81.175 219.398 81.1593C219.389 81.1437 219.384 81.1266 219.383 81.1089C219.379 81.0727 219.39 81.0364 219.412 81.0078C219.435 80.9793 219.468 80.9606 219.504 80.9558C220.081 80.9133 220.641 80.7359 221.137 80.4378C221.634 80.1398 222.053 79.7293 222.362 79.2396C222.37 79.2227 222.38 79.2076 222.394 79.1953C222.408 79.183 222.424 79.1738 222.442 79.1683C222.459 79.1629 222.478 79.1613 222.496 79.1637C222.514 79.1661 222.532 79.1724 222.547 79.1822C222.579 79.1997 222.602 79.2287 222.613 79.2632C222.624 79.2976 222.621 79.3349 222.605 79.3672C222.09 80.2189 221.264 80.8368 220.301 81.0898Z" fill="#263238"/>
<path d="M231.02 76.694C230.88 77.7919 230.311 78.7898 229.438 79.4693C228.27 80.3625 227.147 79.4693 227.013 78.0721C226.898 76.7961 227.358 74.8821 228.749 74.512C229.052 74.4502 229.366 74.463 229.664 74.5492C229.961 74.6355 230.233 74.7927 230.457 75.0072C230.68 75.2218 230.848 75.4874 230.946 75.7812C231.044 76.075 231.069 76.3882 231.02 76.694Z" fill="#FFC3BD"/>
<path d="M221.75 71.8516C221.714 71.8605 221.677 71.8623 221.641 71.8569C221.605 71.8514 221.57 71.8387 221.539 71.8197C221.25 71.6351 220.921 71.5215 220.58 71.4882C220.238 71.455 219.893 71.5029 219.574 71.6283C219.508 71.6577 219.433 71.661 219.364 71.6373C219.295 71.6136 219.238 71.5648 219.204 71.5007C219.173 71.4354 219.169 71.3607 219.193 71.2926C219.217 71.2246 219.267 71.1687 219.332 71.137C219.733 70.9711 220.169 70.9042 220.602 70.9419C221.035 70.9797 221.453 71.121 221.82 71.3539C221.85 71.3722 221.876 71.3964 221.897 71.4249C221.918 71.4535 221.933 71.4859 221.942 71.5203C221.95 71.5547 221.951 71.5904 221.946 71.6254C221.94 71.6603 221.928 71.6938 221.909 71.724C221.874 71.785 221.817 71.8306 221.75 71.8516Z" fill="#263238"/>
<path d="M213.392 73.4402C213.326 73.4652 213.253 73.4652 213.188 73.4402C213.126 73.404 213.08 73.3455 213.06 73.2767C213.04 73.2079 213.047 73.134 213.079 73.0701C213.274 72.6818 213.559 72.3462 213.912 72.0919C214.264 71.8375 214.672 71.6719 215.102 71.6091C215.137 71.6056 215.174 71.6093 215.208 71.62C215.242 71.6307 215.274 71.6482 215.301 71.6714C215.329 71.6946 215.351 71.7231 215.367 71.7551C215.383 71.7872 215.393 71.8221 215.395 71.8579C215.401 71.9297 215.377 72.0007 215.331 72.0556C215.284 72.1105 215.218 72.1449 215.146 72.1514C214.808 72.2084 214.488 72.3443 214.212 72.5483C213.936 72.7523 213.712 73.0185 213.558 73.3253C213.54 73.355 213.516 73.3805 213.487 73.4003C213.458 73.4201 213.426 73.4337 213.392 73.4402Z" fill="#263238"/>
<path d="M242.402 100.236C243.703 103.419 244.825 106.671 245.764 109.978C246.759 113.315 247.468 116.73 247.882 120.186C247.991 121.067 248.023 121.992 248.061 122.904V123.421C248.061 123.606 248.029 123.798 248.003 123.963C247.95 124.282 247.878 124.598 247.787 124.908C247.62 125.438 247.407 125.953 247.149 126.445C246.264 128.081 245.18 129.6 243.92 130.969C241.591 133.527 239.028 135.862 236.264 137.942L234.42 135.894C236.545 133.412 238.689 130.867 240.507 128.238C241.385 127.045 242.134 125.762 242.74 124.41C242.844 124.148 242.929 123.88 242.995 123.606C243.012 123.513 243.023 123.42 243.027 123.325C243.03 123.298 243.03 123.27 243.027 123.242V123.153C242.944 122.4 242.887 121.647 242.746 120.875C242.197 117.724 241.432 114.614 240.456 111.567C239.48 108.479 238.389 105.347 237.266 102.361L242.402 100.236Z" fill="#FFC3BD"/>
<path d="M240.009 94.0157C242.357 94.7302 245.177 102.814 245.177 102.814L236.06 109.321C236.06 109.321 232.736 102.578 233.725 99.5408C234.784 96.3827 237.336 93.199 240.009 94.0157Z" fill="#0087BF"/>
<path opacity="0.4" d="M240.009 94.0157C242.357 94.7302 245.177 102.814 245.177 102.814L236.06 109.321C236.06 109.321 232.736 102.578 233.725 99.5408C234.784 96.3827 237.336 93.199 240.009 94.0157Z" fill="black"/>
<path d="M266.263 238.146C266.145 238.143 266.029 238.113 265.924 238.059C265.819 238.005 265.728 237.928 265.657 237.834C265.599 237.774 265.558 237.7 265.538 237.619C265.518 237.539 265.519 237.454 265.542 237.374C265.759 236.672 267.762 236.098 267.992 236.034C268.017 236.025 268.044 236.025 268.07 236.033C268.095 236.041 268.117 236.057 268.132 236.079C268.147 236.101 268.154 236.126 268.154 236.153C268.154 236.179 268.147 236.204 268.132 236.226C267.775 236.909 267.067 238.057 266.34 238.14L266.263 238.146ZM267.743 236.392C266.952 236.647 265.919 237.087 265.829 237.457C265.82 237.492 265.82 237.529 265.83 237.564C265.84 237.599 265.86 237.63 265.887 237.655C265.938 237.728 266.007 237.787 266.087 237.825C266.168 237.863 266.257 237.879 266.346 237.872C266.716 237.827 267.233 237.279 267.743 236.392Z" fill="#0087BF"/>
<path d="M267.112 236.417C266.515 236.478 265.917 236.309 265.44 235.945C265.373 235.861 265.337 235.756 265.337 235.649C265.337 235.541 265.373 235.436 265.44 235.352C265.497 235.263 265.573 235.189 265.662 235.134C265.752 235.078 265.852 235.044 265.957 235.033C266.786 234.931 268.043 236.015 268.094 236.06C268.113 236.075 268.127 236.095 268.135 236.117C268.143 236.14 268.144 236.164 268.139 236.188C268.136 236.212 268.126 236.236 268.11 236.255C268.094 236.275 268.073 236.289 268.049 236.296C267.745 236.383 267.428 236.424 267.112 236.417ZM266.097 235.301H266.008C265.942 235.308 265.88 235.33 265.823 235.364C265.767 235.398 265.719 235.444 265.682 235.499C265.587 235.645 265.619 235.722 265.682 235.773C265.931 236.098 267.067 236.219 267.756 236.092C267.284 235.684 266.711 235.41 266.097 235.301Z" fill="#0087BF"/>
<path d="M214.4 259.213C213.907 259.258 213.414 259.132 213.003 258.856C212.915 258.776 212.847 258.676 212.804 258.566C212.761 258.455 212.744 258.336 212.754 258.218C212.759 258.142 212.784 258.069 212.825 258.005C212.866 257.942 212.923 257.89 212.99 257.854C213.698 257.465 215.995 258.639 216.257 258.779C216.281 258.793 216.301 258.814 216.313 258.839C216.326 258.864 216.33 258.892 216.327 258.92C216.323 258.948 216.311 258.974 216.291 258.995C216.272 259.015 216.246 259.029 216.218 259.034C215.619 259.149 215.01 259.209 214.4 259.213ZM213.373 258.02C213.285 258.014 213.197 258.032 213.118 258.071C213.09 258.084 213.067 258.105 213.052 258.131C213.036 258.157 213.028 258.187 213.028 258.218C213.018 258.298 213.027 258.379 213.055 258.454C213.082 258.53 213.128 258.598 213.188 258.652C213.539 258.971 214.464 259.022 215.74 258.811C215.002 258.414 214.201 258.147 213.373 258.02Z" fill="#0087BF"/>
<path d="M216.193 259.028H216.135C215.446 258.715 214.087 257.471 214.221 256.821C214.221 256.667 214.355 256.47 214.732 256.431C214.868 256.417 215.005 256.431 215.136 256.471C215.266 256.512 215.387 256.579 215.491 256.667C216.212 257.274 216.346 258.824 216.352 258.894C216.354 258.918 216.35 258.941 216.34 258.962C216.33 258.984 216.314 259.002 216.295 259.015C216.28 259.025 216.263 259.031 216.245 259.033C216.228 259.035 216.21 259.033 216.193 259.028ZM214.815 256.687H214.738C214.483 256.687 214.47 256.814 214.464 256.846C214.4 257.235 215.325 258.218 216.027 258.639C215.97 257.983 215.711 257.362 215.287 256.859C215.158 256.74 214.99 256.672 214.815 256.667V256.687Z" fill="#0087BF"/>
<path d="M236.207 127.6L236.806 129.699C236.889 129.859 236.698 130.024 236.424 130.024H212.314C212.103 130.024 211.924 129.922 211.912 129.788L211.701 127.696C211.701 127.549 211.867 127.428 212.103 127.428H235.83C235.903 127.422 235.975 127.434 236.041 127.464C236.107 127.495 236.164 127.541 236.207 127.6Z" fill="#0087BF"/>
<path opacity="0.3" d="M236.207 127.6L236.806 129.699C236.889 129.859 236.698 130.024 236.424 130.024H212.314C212.103 130.024 211.924 129.922 211.912 129.788L211.701 127.696C211.701 127.549 211.867 127.428 212.103 127.428H235.83C235.903 127.422 235.975 127.434 236.041 127.464C236.107 127.495 236.164 127.541 236.207 127.6Z" fill="white"/>
<path d="M233.023 130.28H233.661C233.782 130.28 233.878 130.216 233.872 130.133L233.572 127.409C233.572 127.332 233.457 127.262 233.329 127.262H232.691C232.564 127.262 232.468 127.332 232.481 127.409L232.774 130.133C232.787 130.216 232.87 130.28 233.023 130.28Z" fill="#263238"/>
<path d="M214.1 130.28H214.738C214.866 130.28 214.962 130.216 214.955 130.133L214.655 127.409C214.655 127.332 214.534 127.262 214.413 127.262H213.775C213.647 127.262 213.552 127.332 213.558 127.409L213.858 130.133C213.864 130.216 213.973 130.28 214.1 130.28Z" fill="#263238"/>
<path d="M223.562 130.28H224.2C224.327 130.28 224.423 130.216 224.417 130.133L224.117 127.409C224.117 127.332 224.002 127.262 223.874 127.262H223.236C223.109 127.262 223.013 127.332 223.026 127.409L223.3 130.152C223.3 130.216 223.434 130.28 223.562 130.28Z" fill="#263238"/>
<path d="M220.697 74.3589L219.555 74.142C219.555 74.142 220.206 74.9586 220.697 74.3589Z" fill="#263238"/>
<path opacity="0.2" d="M199.579 155.602C188.77 159.801 176.959 160.701 165.638 158.187C154.318 155.674 143.997 149.86 135.98 141.481C127.964 133.102 122.613 122.534 120.602 111.113C118.592 99.6927 120.014 87.9325 124.687 77.3198C129.36 66.707 137.076 57.7184 146.857 51.4905C156.639 45.2626 168.048 42.0751 179.641 42.3312C191.235 42.5872 202.492 46.2752 211.989 52.9289C221.486 59.5826 228.797 68.903 232.998 79.7117C235.788 86.8889 237.136 94.5454 236.967 102.244C236.797 109.942 235.113 117.532 232.009 124.579C228.906 131.627 224.445 137.994 218.88 143.317C213.316 148.64 206.757 152.814 199.579 155.602Z" fill="#0087BF"/>
<path opacity="0.1" d="M188.969 43.2883L142.982 147.729C142.274 147.193 141.572 146.638 140.883 146.076C136.438 142.4 132.568 138.079 129.399 133.259L169.121 43.0459C175.702 41.9859 182.416 42.0679 188.969 43.2883Z" fill="white"/>
<path opacity="0.1" d="M221.661 61.4075L178.423 159.602C169.442 159.612 160.58 157.555 152.521 153.592L199.733 46.3635C208.097 49.6345 215.598 54.7813 221.661 61.4075Z" fill="white"/>
<path d="M130.076 61.4522C137.888 51.9058 148.356 44.8906 160.156 41.2936C171.956 37.6966 184.557 37.6793 196.366 41.2441C208.176 44.8088 218.663 51.7954 226.502 61.3203C234.341 70.8453 239.179 82.4808 240.405 94.7555C241.631 107.03 239.189 119.393 233.389 130.28C227.589 141.167 218.691 150.09 207.82 155.92C196.949 161.75 184.593 164.225 172.315 163.033C160.037 161.841 148.388 157.034 138.842 149.222C126.042 138.744 117.927 123.612 116.283 107.152C114.639 90.6927 119.601 74.2542 130.076 61.4522ZM222.662 137.221C229.834 128.455 234.245 117.759 235.337 106.486C236.43 95.2127 234.156 83.8687 228.802 73.8883C223.447 63.9078 215.254 55.7391 205.257 50.415C195.261 45.091 183.91 42.8507 172.64 43.9775C161.371 45.1043 150.688 49.5476 141.943 56.7454C133.199 63.9433 126.785 73.5725 123.513 84.4155C120.241 95.2584 120.257 106.828 123.56 117.662C126.863 128.495 133.305 138.106 142.07 145.279C147.891 150.042 154.592 153.612 161.793 155.785C168.993 157.958 176.551 158.691 184.035 157.943C191.519 157.195 198.782 154.98 205.41 151.424C212.037 147.869 217.9 143.042 222.662 137.221Z" fill="#0087BF"/>
<path d="M228.168 137.004C234.312 140.673 240.156 144.705 245.898 148.865C251.64 153.024 257.235 157.356 262.741 161.803C268.247 166.25 273.651 170.824 278.863 175.629C281.475 178.028 284.027 180.49 286.519 183.017C289.02 185.569 291.477 188.121 293.793 190.89C294.328 191.531 294.623 192.338 294.627 193.173C294.631 194.008 294.344 194.819 293.816 195.465C293.287 196.111 292.55 196.554 291.73 196.715C290.911 196.877 290.061 196.748 289.327 196.351C286.137 194.628 283.151 192.727 280.171 190.781C277.192 188.835 274.283 186.806 271.412 184.72C265.67 180.56 260.113 176.177 254.67 171.654C249.228 167.13 243.869 162.505 238.657 157.694C233.444 152.884 228.334 147.959 223.523 142.663C222.923 142.008 222.578 141.159 222.553 140.27C222.528 139.382 222.824 138.514 223.387 137.827C223.95 137.139 224.742 136.677 225.618 136.526C226.494 136.375 227.394 136.545 228.155 137.004H228.168Z" fill="#0087BF"/>
<path d="M235.033 135.256L228.87 136.194L233.278 140.06C233.278 140.06 236.762 138.784 237.106 136.424L235.033 135.256Z" fill="#FFC3BD"/>
<path d="M225.54 139.735L229.412 142.772L234.14 139.684L228.87 136.207L225.54 139.735Z" fill="#FFC3BD"/>
<path d="M196.402 146.453C196.965 144.916 197.98 143.586 199.314 142.637C200.647 141.689 202.237 141.166 203.873 141.138H254.945C255.827 141.105 256.706 141.266 257.52 141.61C258.333 141.954 259.061 142.472 259.653 143.128C260.244 143.784 260.684 144.562 260.943 145.406C261.201 146.251 261.27 147.142 261.146 148.016L247.952 258.715C247.672 260.6 246.731 262.323 245.297 263.578C243.863 264.832 242.029 265.535 240.124 265.561H78.0722C77.1926 265.595 76.3165 265.435 75.5053 265.093C74.6941 264.752 73.9677 264.237 73.3771 263.584C72.7865 262.931 72.3462 262.157 72.087 261.316C71.8279 260.475 71.7563 259.587 71.8772 258.715L82.9401 165.708C83.2201 163.823 84.1614 162.1 85.5955 160.846C87.0297 159.591 88.8633 158.888 90.7684 158.862H178.953C182.774 158.797 186.486 157.577 189.6 155.362C192.715 153.147 195.086 150.041 196.402 146.453Z" fill="#0087BF"/>
<path d="M74.7927 260.464H244.124L253.771 146.529H84.4457L74.7927 260.464Z" fill="#F0F0F0"/>
<path d="M74.7927 260.464H244.124L251.104 146.529H84.4457L74.7927 260.464Z" fill="#E0E0E0"/>
<path d="M74.7927 260.464H244.124L249.943 142.912H80.6177L74.7927 260.464Z" fill="#F0F0F0"/>
<path d="M74.7927 260.464H244.124L246.427 142.912H80.6177L74.7927 260.464Z" fill="#E0E0E0"/>
<path d="M74.7927 260.464H244.124L245.132 139.722H75.8071L74.7927 260.464Z" fill="#F0F0F0"/>
<path d="M74.7928 260.464H244.124L240.647 142.006H72.4131L74.7928 260.464Z" fill="#E0E0E0"/>
<path d="M74.7928 260.464H244.124L239.097 142.912H69.7717L74.7928 260.464Z" fill="#F0F0F0"/>
<path d="M74.7928 260.464H244.124L236.117 144.686H66.7922L74.7928 260.464Z" fill="#E0E0E0"/>
<path d="M74.7929 260.464H244.124L234.842 145.675H65.5164L74.7929 260.464Z" fill="#F0F0F0"/>
<path d="M159.589 153.643C159.599 152.903 159.757 152.172 160.055 151.494C160.353 150.817 160.784 150.206 161.322 149.698C161.861 149.19 162.497 148.796 163.191 148.539C163.885 148.282 164.624 148.167 165.363 148.201H216.435C218.413 148.277 220.309 149.007 221.826 150.278C223.343 151.548 224.396 153.286 224.819 155.219L244.998 258.575C245.751 262.448 243.225 265.593 239.352 265.593H77.3002C73.4211 265.593 69.6442 262.448 68.9105 258.575L52.265 173.37C51.5122 169.497 54.0387 166.352 57.9113 166.352H146.102C153.758 166.352 159.328 161.082 159.589 153.643Z" fill="#0087BF"/>
<path opacity="0.2" d="M159.589 153.643C159.599 152.903 159.757 152.172 160.055 151.494C160.353 150.817 160.784 150.206 161.322 149.698C161.861 149.19 162.497 148.796 163.191 148.539C163.885 148.282 164.624 148.167 165.363 148.201H216.435C218.413 148.277 220.309 149.007 221.826 150.278C223.343 151.548 224.396 153.286 224.819 155.219L244.998 258.575C245.751 262.448 243.225 265.593 239.352 265.593H77.3002C73.4211 265.593 69.6442 262.448 68.9105 258.575L52.265 173.37C51.5122 169.497 54.0387 166.352 57.9113 166.352H146.102C153.758 166.352 159.328 161.082 159.589 153.643Z" fill="black"/>
</svg>
